<?xml version="1.0" encoding="utf-8"?>
<!-- Generator: Adobe Illustrator 23.0.2, SVG Export Plug-In . SVG Version: 6.00 Build 0)  -->
<svg version="1.1" id="Layer_1" xmlns="http://www.w3.org/2000/svg" xmlns:xlink="http://www.w3.org/1999/xlink" x="0px" y="0px"
	 viewBox="0 0 480 480" style="enable-background:new 0 0 480 480;" xml:space="preserve">
<style type="text/css">
	.st0{fill:#808285;}
	.st1{fill:#FFF200;}
</style>
<rect id="XMLID_44_" x="7" y="7" class="st0" width="468" height="468"/>
<g id="XMLID_2_">
	<g>
		<path id="XMLID_156_" class="st1" d="M141.16,247.43c0,2.97-0.89,5.35-2.68,7.12c-1.78,1.78-4.17,2.68-7.18,2.68
			c-6.16,0-9.23-3.34-9.23-10.04c0-0.66,0-1.62,0-2.84c0-1.25,0-2.1,0-2.59v-20.94c0-1.08-0.37-2.43-1.12-4.09
			c-0.89-2.08-1.97-3.09-3.2-3.09c-3.03,0-5.29,3.59-6.77,10.79c-1.08,6.7-2.14,13.43-3.2,20.21c-1.39,7.18-3.53,10.79-6.41,10.79
			c-2.3,0-4.03-1.58-5.17-4.71c-0.58-1.66-1.47-6.58-2.72-14.75c-2.22-14.55-4.96-21.81-8.26-21.81c-1.14,0-2.18,1.04-3.07,3.09
			c-0.75,1.58-1.1,2.72-1.1,3.47v30.36c0,0.66-0.37,1.45-1.12,2.34c-1.49,1.83-2.84,2.97-4.09,3.47c-0.75,0.25-2.08,0.37-3.96,0.37
			c-2.97,0-5.37-1.04-7.2-3.09c-1.66-1.83-2.47-4.09-2.47-6.83v-90.85c0-6.85,4.3-10.29,12.89-10.29c0.42,0,1.43,0.08,3.03,0.25
			c1.62,0.17,2.68,0.29,3.15,0.37c1.16,0.08,2.55,0.71,4.21,1.87c2.05,1.41,3.8,5.62,5.21,12.64c1.33,5.96,2.59,11.93,3.84,17.97
			c1.74,6.04,4.05,9.05,6.93,9.05c3.22,0,5.71-3.01,7.43-9.05c1.16-6.04,2.37-12.06,3.59-18.1c1.49-7.1,3.42-11.43,5.83-13.01
			c2.08-1.33,5.33-1.99,9.79-1.99c8.67,0,13.01,3.38,13.01,10.17v91.08H141.16z"/>
		<path id="XMLID_153_" class="st1" d="M200.16,238.78c0,6.85-3.05,11.56-9.17,14.11c-3.8,1.47-9.38,2.22-16.73,2.22
			c-7.43,0-13.05-0.83-16.85-2.47c-5.87-2.47-8.8-7.14-8.8-13.99v-51.36c0-6.77,2.76-11.43,8.3-13.99c3.71-1.64,9.5-2.47,17.35-2.47
			c7.6,0,13.34,0.83,17.22,2.47c5.79,2.55,8.67,7.18,8.67,13.86L200.16,238.78L200.16,238.78z M180.2,237.53v-49.1
			c0-0.83-0.5-1.93-1.49-3.34c-1.16-1.81-2.59-2.72-4.34-2.72c-1.33,0-2.59,0.73-3.84,2.16c-1.25,1.43-1.87,2.78-1.87,4.03v48.87
			c0,1,0.5,2.18,1.49,3.59c1.33,1.81,2.72,2.72,4.21,2.72c1.49,0,2.84-0.79,4.09-2.34C179.64,240.05,180.2,238.78,180.2,237.53z"/>
		<path id="XMLID_151_" class="st1" d="M258.04,190.8c0,8.09-3.34,12.14-10.04,12.14c-4.79,0-7.89-1.7-9.3-5.08
			c-0.08-0.17-0.58-3.3-1.49-9.42c-0.42-3.38-1.99-5.08-4.71-5.08c-3.71,0-5.58,5.56-5.58,16.71v46.03c0,2.8-0.91,5.04-2.72,6.74
			c-1.83,1.68-4.25,2.53-7.3,2.53c-3.13,0-5.6-0.91-7.37-2.72c-1.78-1.83-2.66-4.05-2.66-6.7v-65.45c0-1.08,0.42-2.51,1.25-4.34
			c0.83-1.83,1.74-3.01,2.72-3.59c1.83-0.91,4.3-1.41,7.43-1.49c-6.37,0.08-3.84,0.21,7.55,0.37c2.05,0,5.4-0.1,9.98-0.31
			c4.59-0.21,6.83-0.31,6.74-0.31C252.87,170.84,258.04,177.5,258.04,190.8z"/>
		<path id="XMLID_149_" class="st1" d="M291.39,173.68c0,1-0.37,1.91-1.12,2.72c-4.05,4.38-6.08,7.51-6.08,9.42v59.75
			c0,2.8-0.85,5.06-2.53,6.77c-1.7,1.7-3.98,2.53-6.89,2.53c-2.97,0-5.27-0.89-6.89-2.68c-1.62-1.78-2.41-4.03-2.41-6.74v-59.5
			c0-0.33-0.68-2.32-2.05-6.02c-1.37-3.67-2.05-5.73-2.05-6.14c0-1,1.16-4.01,3.47-9.05c1-2.39,2.01-4.79,3.09-7.18
			c1.41-2.41,3.26-4.13,5.58-5.21c3.22-1.41,6.93-2.1,11.14-2.1c4.13,0,6.2,1.16,6.2,3.47c0,0.25-0.21,0.95-0.62,2.1
			c-2.91,3.47-4.34,6.04-4.34,7.68c0,0.42,0.91,2.1,2.72,5.08C290.47,171.58,291.39,173.29,291.39,173.68z"/>
		<path id="XMLID_146_" class="st1" d="M315.69,248.18c0,2.72-0.79,4.88-2.37,6.45c-1.58,1.58-3.67,2.34-6.33,2.34
			c-2.8,0-4.98-0.83-6.52-2.47c-1.54-1.66-2.28-3.8-2.28-6.45v-62.96c0-2.47,0.77-4.61,2.28-6.39c1.54-1.78,3.69-2.66,6.52-2.66
			c2.72,0,4.92,0.95,6.58,2.84c1.41,1.66,2.12,3.67,2.12,6.08V248.18z M313.57,160.17c0,3.8-2.41,5.71-7.18,5.71
			c-2.82,0-5.17-1.08-7.08-3.22v-4.84c1.41-1.66,2.59-2.68,3.59-3.09c0.5-0.17,1.66-0.25,3.47-0.25
			C311.18,154.48,313.57,156.37,313.57,160.17z"/>
		<path id="XMLID_144_" class="st1" d="M372.07,245.19c0,2.97-0.91,5.27-2.72,6.89c-1.83,1.62-4.09,2.43-6.81,2.43
			c-2.97,0-5.31-0.87-6.99-2.61c-1.7-1.74-2.55-3.86-2.55-6.33v-58.35c0-1.41-0.6-2.74-1.78-3.96c-1.18-1.25-2.34-1.87-3.49-1.87
			c-1.47,0-2.74,0.64-3.8,1.93c-1.06,1.29-1.6,2.59-1.6,3.9v58.35c0,2.82-0.91,5-2.74,6.58c-1.83,1.58-4.11,2.37-6.87,2.37
			c-3.07,0-5.44-0.89-7.06-2.68c-1.62-1.78-2.43-4.03-2.43-6.77v-65.66c0-1.08,0.37-2.53,1.12-4.34c0.75-1.83,1.62-3.01,2.59-3.59
			c1.83-1,4.13-1.49,6.93-1.49c0.91,0,2.2,0.06,3.9,0.19c1.7,0.12,2.91,0.19,3.65,0.19c2.05,0,7.14-0.25,15.25-0.75
			c5.62,0,9.75,2.08,12.39,6.2c1.99,3.07,2.97,6.99,2.97,11.79v57.59H372.07z"/>
		<path id="XMLID_141_" class="st1" d="M423.51,245.84c0,6.2-3.8,9.3-11.41,9.3h-19.47c-6.87,0-11.33-2.68-13.39-8.05
			c-1.16-2.8-1.74-7.8-1.74-15c0-4.88,0.17-8.34,0.5-10.42c0.75-3.88,2.68-6.89,5.83-9.05c1-0.66,4.21-2.05,9.67-4.21
			c4.21-1.74,7.3-3.8,9.3-6.2c1.08-1.33,1.78-3.13,2.12-5.46c0.08-0.91,0.12-2.35,0.12-4.34c0-6.45-1.49-9.67-4.46-9.67
			c-1.91,0-3.3,1.2-4.21,3.59c-1.49,4.21-2.28,6.45-2.37,6.7c-1.49,2.32-3.96,3.47-7.43,3.47c-5.79,0-8.67-3.42-8.67-10.29
			c0-6.54,2.51-11.04,7.55-13.51c3.3-1.58,8.34-2.37,15.13-2.37c15.29,0,22.93,5.33,22.93,15.98V245.84z M405.04,231.58
			c0-7.84-1.49-11.77-4.46-11.77c-3.05,0-4.59,3.92-4.59,11.77c0,7.93,1.54,11.89,4.59,11.89
			C403.55,243.47,405.04,239.51,405.04,231.58z"/>
	</g>
</g>
<g>
	<path class="st1" d="M80.75,319.4H66v13.7h16.46v4.11H61.1v-37.98h20.5v4.11H66v11.99h14.75V319.4z"/>
	<path class="st1" d="M104.22,299.75c2.99-0.46,6.54-0.79,10.42-0.79c7.03,0,12.06,1.64,15.38,4.73c3.38,3.09,5.35,7.49,5.35,13.63
		c0,6.2-1.91,11.27-5.46,14.75c-3.55,3.55-9.4,5.46-16.79,5.46c-3.49,0-6.43-0.17-8.9-0.44L104.22,299.75L104.22,299.75z
		 M109.12,333.33c1.25,0.23,3.05,0.29,4.96,0.29c10.48,0,16.17-5.85,16.17-16.1c0.06-8.96-5.02-14.65-15.38-14.65
		c-2.53,0-4.44,0.23-5.75,0.5L109.12,333.33L109.12,333.33z"/>
	<path class="st1" d="M162.04,299.23v37.98h-4.9v-37.98H162.04z"/>
	<path class="st1" d="M193.21,303.4h-11.54v-4.17h28.1v4.17h-11.6v33.81h-4.96V303.4z"/>
	<path class="st1" d="M260.32,317.82c0,13.07-7.95,20.01-17.64,20.01c-10.02,0-17.06-7.78-17.06-19.28
		c0-12.06,7.49-19.94,17.64-19.94C253.62,298.61,260.32,306.56,260.32,317.82z M230.85,318.45c0,8.11,4.4,15.38,12.12,15.38
		c7.78,0,12.16-7.16,12.16-15.77c0-7.55-3.94-15.44-12.1-15.44C234.9,302.61,230.85,310.1,230.85,318.45z"/>
	<path class="st1" d="M282.09,299.75c2.47-0.5,6.02-0.79,9.4-0.79c5.23,0,8.61,0.95,10.98,3.09c1.91,1.68,2.99,4.27,2.99,7.2
		c0,5.02-3.15,8.34-7.16,9.69v0.17c2.93,1.02,4.67,3.71,5.58,7.66c1.25,5.29,2.14,8.96,2.93,10.42h-5.06
		c-0.62-1.06-1.47-4.34-2.53-9.07c-1.12-5.23-3.15-7.2-7.6-7.37h-4.63v16.44h-4.9V299.75z M286.99,317.04h5.02
		c5.23,0,8.57-2.86,8.57-7.2c0-4.9-3.55-7.03-8.74-7.1c-2.37,0-4.05,0.23-4.86,0.44L286.99,317.04L286.99,317.04z"/>
	<path class="st1" d="M332.68,299.23v37.98h-4.9v-37.98H332.68z"/>
	<path class="st1" d="M362.79,325.25l-3.94,11.95h-5.06l12.91-37.98h5.91l12.95,37.98h-5.23l-4.05-11.95H362.79z M375.22,321.43
		l-3.71-10.92c-0.85-2.47-1.41-4.73-1.97-6.93h-0.1c-0.56,2.24-1.18,4.57-1.91,6.87l-3.71,10.98H375.22z"/>
	<path class="st1" d="M406.52,299.23h4.9v33.85h16.23v4.11h-21.13V299.23z"/>
</g>
</svg>
